<svg xmlns="http://www.w3.org/2000/svg" xmlns:xlink="http://www.w3.org/1999/xlink" width="100%" height="100%" version="1.1" viewBox="0 0 45 29" xml:space="preserve" style="fill-rule:evenodd;clip-rule:evenodd;stroke-linejoin:round;stroke-miterlimit:1.41421"><g><g><path d="M20.012,24.207c2.755,-7.885 9.322,-12.996 22.725,-13.133l-22.725,13.133Z" style="fill:#f4f1f1"/><path d="M20.012,24.207c8.207,1.549 15.914,-1.589 22.725,-13.133l-22.725,13.133Z" style="fill:#fff"/></g><g><path d="M24.988,24.207c-2.755,-7.885 -9.322,-12.996 -22.725,-13.133l22.725,13.133Z" style="fill:#f4f1f1"/><path d="M24.988,24.207c-8.207,1.549 -15.914,-1.589 -22.725,-13.133l22.725,13.133Z" style="fill:#fff"/></g><g><path d="M22.5,28.451c8.047,-6.33 9.731,-14.573 0,-26.246l0,26.246Z" style="fill:#f4f1f1"/><path d="M22.5,28.451c-8.047,-6.33 -9.731,-14.573 0,-26.246l0,26.246Z" style="fill:#fff"/></g><g><path d="M21.911,24.575c2.246,-9.989 -1.651,-17.446 -16.567,-20.357l16.567,20.357Z" style="fill:#f4f1f1"/><path d="M21.911,24.575c-10.237,0.169 -16.747,-5.161 -16.567,-20.357l16.567,20.357Z" style="fill:#fff"/></g><g><path d="M23.089,24.575c-2.246,-9.989 1.651,-17.446 16.567,-20.357l-16.567,20.357Z" style="fill:#fff"/><path d="M23.089,24.575c10.237,0.169 16.747,-5.161 16.567,-20.357l-16.567,20.357Z" style="fill:#f4f1f1"/></g><path d="M5.344,4.218c3.881,5.856 8.714,11.29 13.579,16.711l-13.579,-16.711Z" style="fill:#e6e6e6"/><path d="M26.077,20.929c3.881,-5.856 8.715,-11.291 13.579,-16.711l-13.579,16.711Z" style="fill:#e6e6e6"/><path d="M6.333,13.413l-4.07,-2.339c1.176,0.778 2.437,1.6 4.07,2.339Z" style="fill:#e6e6e6"/><path d="M42.737,11.074l-4.07,2.339c1.176,-0.778 2.437,-1.6 4.07,-2.339Z" style="fill:#e6e6e6"/><path d="M22.5,2.204c-0.154,8.643 -0.161,17.387 0,26.247l0,-26.247Z" style="fill:#e6e6e6"/></g></svg>