<?xml version="1.0" encoding="UTF-8" standalone="no"?><!DOCTYPE svg PUBLIC "-//W3C//DTD SVG 1.1//EN" "http://www.w3.org/Graphics/SVG/1.1/DTD/svg11.dtd"><svg width="100%" height="100%" viewBox="0 0 24 24" version="1.1" xmlns="http://www.w3.org/2000/svg" xmlns:xlink="http://www.w3.org/1999/xlink" xml:space="preserve" xmlns:serif="http://www.serif.com/" style="fill-rule:evenodd;clip-rule:evenodd;stroke-linejoin:round;stroke-miterlimit:1.41421;"><path id="surface1" d="M12,2c-5.523,0 -10,4.477 -10,10c0,5.523 4.477,10 10,10c5.523,0 10,-4.477 10,-10c0,-5.523 -4.477,-10 -10,-10Zm0,2.75c1.797,0 3.25,1.453 3.25,3.25c0,1.797 -1.453,3.25 -3.25,3.25c-1.797,0 -3.25,-1.453 -3.25,-3.25c0,-1.797 1.453,-3.25 3.25,-3.25Zm0,15.25c-2.77,0 -5.211,-1.406 -6.645,-3.547c1.122,-1.629 4.692,-2.453 6.645,-2.453c1.953,0 5.523,0.824 6.645,2.453c-1.434,2.141 -3.875,3.547 -6.645,3.547Z" style="fill:#2ED594;fill-rule:nonzero;"/></svg>